{"title":"South Park S18E01 Go Fund Yourself 1080p BluRay x264-AuP","uid":11780564,"size":211356571,"categoryP":"video","categoryS":"hd___tv_shows","magnet":"?xt=urn:btih:f9301c085dc91e42c2fbfe137e61c4a3aa774331&amp;dn=South+Park+S18E01+Go+Fund+Yourself+1080p+BluRay+x264-AuP&amp;tr=udp%3A%2F%2Ftracker.openbittorrent.com%3A80&amp;tr=udp%3A%2F%2Fopen.demonii.com%3A1337&amp;tr=udp%3A%2F%2Ftracker.coppersurfer.tk%3A6969&amp;tr=udp%3A%2F%2Fexodus.desync.com%3A6969","seeders":4,"leechers":1,"uploader":"Anon_up","files":1,"time":1427557707,"description":"Use Torrent to download\n(WebSeed)\nut not recommended if downloading later\n\nDownload Link : http://www.uploadbaz.com/t9z2ttdz4w21\n\n[img]http://i.imgur.com/Zve3hsA.png[/img]\n\n\nSource : BD Mux ITA (~900 MB/episode)\nRemoved ITA Audio Stream(Ac3 70 MB)\nCRF 23\n\nGet Subs using VLSub (web-dl must match)\n\nVideo: MPEG4 Video (H264) 1916x1076 23.976fps [V: Italian [ita] (h264 high L4.0, yuv420p, 1916x1076) [default]]\nAudio: Vorbis 48000Hz stereo [A: English [eng] (vorbis, 48000 Hz, stereo)]\n\nMediaInfo\n[spoiler]\nGeneral\nUnique ID : 319197268161255145861390948954858217531 (0xF023285E7E0011BC38FCF12C2696603B)\nComplete name : South.Park.S18E01.Go.Fund.Yourself.1080p.BluRay.x264-AuP.mkv\nFormat : Matroska\nFormat version : Version 4 / Version 2\nFile size : 202 MiB\nDuration : 22mn 10s\nOverall bit rate mode : Variable\nOverall bit rate : 1 271 Kbps\nWriting application : Lavf56.15.102\nWriting library : Lavf56.15.102\nFILENAME : cover.jpeg\nMIMETYPE : image/jpeg\nAttachements : cover.jpeg\n\nVideo\nID : 1\nFormat : AVC\nFormat/Info : Advanced Video Codec\nFormat profile : &lt;a class=&quot;__cf_email__&quot; href=&quot;/cdn-cgi/l/email-protection&quot; data-cfemail=&quot;652d0c020d2529514b55&quot;&gt;[email&amp;#160;protected]&lt;/a&gt;&lt;script cf-hash='f9e31' type=&quot;text/javascript&quot;&gt;\n/* &lt;![CDATA[ */!function(){try{var t=&quot;currentScript&quot;in document?document.currentScript:function(){for(var t=document.getElementsByTagName(&quot;script&quot;),e=t.length;e--;)if(t[e].getAttribute(&quot;cf-hash&quot;))return t[e]}();if(t&amp;&amp;t.previousSibling){var e,r,n,i,c=t.previousSibling,a=c.getAttribute(&quot;data-cfemail&quot;);if(a){for(e=&quot;&quot;,r=parseInt(a.substr(0,2),16),n=2;a.length-n;n+=2)i=parseInt(a.substr(n,2),16)^r,e+=String.fromCharCode(i);e=document.createTextNode(e),c.parentNode.replaceChild(e,c)}}}catch(u){}}();/* ]]&gt; */&lt;/script&gt;\nFormat settings, CABAC : Yes\nFormat settings, ReFrames : 4 frames\nCodec ID : V_MPEG4/ISO/AVC\nDuration : 22mn 10s\nBit rate : 1 134 Kbps\nWidth : 1 916 pixels\nHeight : 1 076 pixels\nDisplay aspect ratio : 16:9\nFrame rate mode : Constant\nFrame rate : 23.976 fps\nColor space : YUV\nChroma subsampling : 4:2:0\nBit depth : 8 bits\nScan type : Progressive\nBits/(Pixel*Frame) : 0.023\nStream size : 180 MiB (89%)\nWriting library : x264 core 144\nEncoding settings : cabac=1 / ref=3 / deblock=1:0:0 / analyse=0x3:0x113 / me=hex / subme=7 / psy=1 / psy_rd=1.00:0.00 / mixed_ref=1 / me_range=16 / chroma_me=1 / trellis=1 / 8x8dct=1 / cqm=0 / deadzone=21,11 / fast_pskip=1 / chroma_qp_offset=-2 / threads=12 / lookahead_threads=2 / sliced_threads=0 / nr=0 / decimate=1 / interlaced=0 / bluray_compat=0 / constrained_intra=0 / bframes=3 / b_pyramid=2 / b_adapt=1 / b_bias=0 / direct=1 / weightb=1 / open_gop=0 / weightp=2 / keyint=250 / keyint_min=23 / scenecut=40 / intra_refresh=0 / rc_lookahead=40 / rc=crf / mbtree=1 / crf=23.0 / qcomp=0.60 / qpmin=0 / qpmax=69 / qpstep=4 / ip_ratio=1.40 / aq=1:1.00\nLanguage : Italian\nDefault : Yes\nForced : No\nDURATION : 00:22:10.456000000\nNUMBER_OF_FRAMES : 31899\nNUMBER_OF_BYTES : 792264772\n_STATISTICS_WRITING_APP : mkvmerge v7.1.0 ('Good Love') 64bit built on Jul 27 2014 13:06:55\n_STATISTICS_WRITING_DATE_UTC : 2014-10-31 09:43:34\n_STATISTICS_TAGS : BPS DURATION NUMBER_OF_FRAMES NUMBER_OF_BYTES\n\nAudio\nID : 2\nFormat : Vorbis\nFormat settings, Floor : 1\nCodec ID : A_VORBIS\nDuration : 22mn 10s\nBit rate mode : Variable\nBit rate : 112 Kbps\nChannel(s) : 2 channels\nSampling rate : 48.0 KHz\nCompression mode : Lossy\nStream size : 17.8 MiB (9%)\nWriting library : libVorbis (TurpakÃƒÂ¤rÃƒÂ¤jiin) (20140122 (TurpakÃƒÂ¤rÃƒÂ¤jiin))\nLanguage : English\nDefault : No\nForced : No\nDURATION : 00:22:10.431000000\nNUMBER_OF_FRAMES : 62364\nNUMBER_OF_BYTES : 21776130\n_STATISTICS_WRITING_APP : mkvmerge v7.1.0 ('Good Love') 64bit built on Jul 27 2014 13:06:55\n_STATISTICS_WRITING_DATE_UTC : 2014-10-31 09:43:34\n_STATISTICS_TAGS : BPS DURATION NUMBER_OF_FRAMES NUMBER_OF_BYTES\nWriting application : Lavc56.13.100\n\n\n[/spoiler]\n\n-AuP","torrent":{"xt":"urn:btih:f9301c085dc91e42c2fbfe137e61c4a3aa774331","amp;dn":"South+Park+S18E01+Go+Fund+Yourself+1080p+BluRay+x264-AuP","amp;tr":["udp%3A%2F%2Ftracker.openbittorrent.com%3A80","udp%3A%2F%2Fopen.demonii.com%3A1337","udp%3A%2F%2Ftracker.coppersurfer.tk%3A6969","udp%3A%2F%2Fexodus.desync.com%3A6969"],"infoHash":"f9301c085dc91e42c2fbfe137e61c4a3aa774331","infoHashBuffer":{"type":"Buffer","data":[249,48,28,8,93,201,30,66,194,251,254,19,126,97,196,163,170,119,67,49]},"announce":[],"urlList":[]}}